# xmcd
#
# Track frame offsets:
# 150
# 20025
# 33825
# 48375
# 64050
# 81750
# 92925
# 114825
# 126900
# 139200
# 154125
# 170625
#
# Disc length: 2430 seconds
#
#
# Revision: 0
# Processed by: cddbd v1.5.1PL0 Copyright (c) Steve Scherf et al.
# Submitted via: FreeRIP 2.51 
#
DISCID=a0097c0c
DTITLE=Cricket Taylor - Let Your Mama Drive
DYEAR=2001
DGENRE=Blues
TTITLE0=Give It To Me
TTITLE1=Let Your Mama Drive
TTITLE2=Look What You Did
TTITLE3=Magnolia Blues
TTITLE4=Wish
TTITLE5=Pussycat Strut
TTITLE6=Bring It Home
TTITLE7=Hurry Up
TTITLE8=Goodbye
TTITLE9=Janet's Highway
TTITLE10=Sweet Talkin' Man
TTITLE11=Goin' Home With Me
EXTD=
EXTT0=
EXTT1=
EXTT2=
EXTT3=
EXTT4=
EXTT5=
EXTT6=
EXTT7=
EXTT8=
EXTT9=
EXTT10=
EXTT11=
PLAYORDER=
